# Blender v2.82 (sub 7) OBJ File: 'loop.blend'
# www.blender.org
mtllib loop_angled_more.mtl
v -1.128766 0.844172 0.828864
v -1.143534 0.789730 0.968562
v -1.143534 0.930329 1.023356
v -1.128766 0.984771 0.883658
v -0.225079 1.063431 0.266248
v -0.375010 1.068792 0.252491
v -0.375010 1.209392 0.307285
v -0.225079 1.204031 0.321041
v 0.263994 0.944768 0.570736
v 0.168418 0.987058 0.462221
v 0.168418 1.127657 0.517015
v 0.263994 1.085368 0.625530
v -0.801979 1.021762 0.373171
v -0.918438 0.987058 0.462221
v -0.918438 1.127657 0.517015
v -0.801979 1.162361 0.427965
v -0.524941 1.063431 0.266248
v -0.669111 1.047550 0.306999
v -0.669111 1.188150 0.361793
v -0.524941 1.204031 0.321041
v 0.378748 0.844172 0.828864
v 0.335014 0.896522 0.694534
v 0.335014 1.037122 0.749328
v 0.378748 0.984771 0.883658
v 0.051959 1.021762 0.373171
v -0.080908 1.047550 0.306999
v -0.080908 1.188150 0.361793
v 0.051959 1.162361 0.427965
v -1.014014 0.944768 0.570736
v -1.085033 0.896522 0.694534
v -1.085033 1.037122 0.749328
v -1.014014 1.085368 0.625530
v 0.393514 0.789730 0.968562
v 0.393514 0.930329 1.023356
v -1.133192 0.736121 1.109531
v -1.133192 0.876721 1.164325
v -0.224197 0.515577 1.675445
v -0.375008 0.510183 1.689284
v -0.375008 0.650783 1.744078
v -0.224197 0.656176 1.730238
v 0.267746 0.634935 1.369174
v 0.171610 0.592399 1.478321
v 0.171610 0.732998 1.533114
v 0.267746 0.775535 1.423968
v -0.804485 0.557490 1.567897
v -0.921628 0.592398 1.478322
v -0.921628 0.732998 1.533116
v -0.804485 0.698089 1.622691
v -0.525821 0.515577 1.675445
v -0.670836 0.531550 1.634457
v -0.670836 0.672150 1.689251
v -0.525821 0.656176 1.730238
v 0.383172 0.736122 1.109530
v 0.339182 0.683464 1.244648
v 0.339182 0.824064 1.299441
v 0.383172 0.876721 1.164324
v 0.054467 0.557490 1.567896
v -0.079181 0.531551 1.634456
v -0.079181 0.672150 1.689250
v 0.054467 0.698090 1.622690
v -1.017766 0.634934 1.369175
v -1.089201 0.683464 1.244649
v -1.089201 0.824064 1.299442
v -1.017766 0.775534 1.423969
vt 0.875000 0.670484
vt 1.000000 0.670484
vt 1.000000 0.795484
vt 0.875000 0.795484
vt -0.125000 0.670484
vt 0.000000 0.670484
vt 0.000000 0.795484
vt -0.125000 0.795484
vt -0.625000 0.670484
vt -0.500000 0.670484
vt -0.500000 0.795484
vt -0.625000 0.795484
vt 0.375000 0.670484
vt 0.500000 0.670484
vt 0.500000 0.795484
vt 0.375000 0.795484
vt 0.125000 0.670484
vt 0.250000 0.670484
vt 0.250000 0.795484
vt 0.125000 0.795484
vt -0.875000 0.670484
vt -0.750000 0.670484
vt -0.750000 0.795484
vt -0.875000 0.795484
vt -0.375000 0.670484
vt -0.250000 0.670484
vt -0.250000 0.795484
vt -0.375000 0.795484
vt 0.625000 0.670484
vt 0.750000 0.670484
vt 0.750000 0.795484
vt 0.625000 0.795484
vt -1.000000 0.670484
vt -1.000000 0.795484
vt 0.875000 0.875000
vt 1.000000 0.875000
vt 1.000000 1.000000
vt 0.875000 1.000000
vt -0.125000 0.875000
vt 0.000000 0.875000
vt 0.000000 1.000000
vt -0.125000 1.000000
vt -0.625000 0.875000
vt -0.500000 0.875000
vt -0.500000 1.000000
vt -0.625000 1.000000
vt 0.375000 0.875000
vt 0.500000 0.875000
vt 0.500000 1.000000
vt 0.375000 1.000000
vt 0.125000 0.875000
vt 0.250000 0.875000
vt 0.250000 1.000000
vt 0.125000 1.000000
vt -0.875000 0.875000
vt -0.750000 0.875000
vt -0.750000 1.000000
vt -0.875000 1.000000
vt -0.375000 0.875000
vt -0.250000 0.875000
vt -0.250000 1.000000
vt -0.375000 1.000000
vt 0.625000 0.875000
vt 0.750000 0.875000
vt 0.750000 1.000000
vt 0.625000 1.000000
vt -1.000000 0.875000
vt -1.000000 1.000000
vn -0.9952 0.0356 -0.0913
vn 0.0980 0.3614 -0.9273
vn 0.7730 0.2304 -0.5911
vn -0.6344 0.2807 -0.7203
vn -0.2903 0.3475 -0.8916
vn 0.9569 0.1054 -0.2705
vn 0.4714 0.3202 -0.8217
vn -0.8819 0.1712 -0.4392
vn -0.7730 0.2304 -0.5911
vn 0.6344 0.2807 -0.7203
vn 0.9952 0.0356 -0.0913
vn -0.0980 0.3614 -0.9273
vn -0.4714 0.3202 -0.8217
vn 0.8819 0.1712 -0.4392
vn 0.2903 0.3475 -0.8916
vn -0.9569 0.1054 -0.2705
vn 0.9977 0.0248 -0.0637
vn 0.6344 0.2807 -0.7202
vn -0.6344 0.2807 -0.7202
vn -0.9977 0.0248 -0.0637
usemtl Default_OBJ.008
s off
f 1/1/1 2/2/1 3/3/1
f 1/1/1 3/3/1 4/4/1
f 5/5/2 6/6/2 7/7/2
f 5/5/2 7/7/2 8/8/2
f 9/9/3 10/10/3 11/11/3
f 9/9/3 11/11/3 12/12/3
f 13/13/4 14/14/4 15/15/4
f 13/13/4 15/15/4 16/16/4
f 17/17/5 18/18/5 19/19/5
f 17/17/5 19/19/5 20/20/5
f 21/21/6 22/22/6 23/23/6
f 21/21/6 23/23/6 24/24/6
f 25/25/7 26/26/7 27/27/7
f 25/25/7 27/27/7 28/28/7
f 29/29/8 30/30/8 31/31/8
f 29/29/8 31/31/8 32/32/8
f 14/14/9 29/29/9 32/32/9
f 14/14/9 32/32/9 15/15/9
f 10/10/10 25/25/10 28/28/10
f 10/10/10 28/28/10 11/11/10
f 33/33/11 21/21/11 24/24/11
f 33/33/11 24/24/11 34/34/11
f 6/6/12 17/17/12 20/20/12
f 6/6/12 20/20/12 7/7/12
f 18/18/13 13/13/13 16/16/13
f 18/18/13 16/16/13 19/19/13
f 22/22/14 9/9/14 12/12/14
f 22/22/14 12/12/14 23/23/14
f 26/26/15 5/5/15 8/8/15
f 26/26/15 8/8/15 27/27/15
f 30/30/16 1/1/16 4/4/16
f 30/30/16 4/4/16 31/31/16
f 35/35/17 2/36/17 3/37/17
f 35/35/17 3/37/17 36/38/17
f 37/39/12 38/40/12 39/41/12
f 37/39/12 39/41/12 40/42/12
f 41/43/9 42/44/9 43/45/9
f 41/43/9 43/45/9 44/46/9
f 45/47/18 46/48/18 47/49/18
f 45/47/10 47/49/10 48/50/10
f 49/51/15 50/52/15 51/53/15
f 49/51/15 51/53/15 52/54/15
f 53/55/16 54/56/16 55/57/16
f 53/55/16 55/57/16 56/58/16
f 57/59/13 58/60/13 59/61/13
f 57/59/13 59/61/13 60/62/13
f 61/63/14 62/64/14 63/65/14
f 61/63/14 63/65/14 64/66/14
f 46/48/3 61/63/3 64/66/3
f 46/48/3 64/66/3 47/49/3
f 42/44/19 57/59/19 60/62/19
f 42/44/19 60/62/19 43/45/19
f 33/67/20 53/55/20 56/58/20
f 33/67/20 56/58/20 34/68/20
f 38/40/2 49/51/2 52/54/2
f 38/40/2 52/54/2 39/41/2
f 50/52/7 45/47/7 48/50/7
f 50/52/7 48/50/7 51/53/7
f 54/56/8 41/43/8 44/46/8
f 54/56/8 44/46/8 55/57/8
f 58/60/5 37/39/5 40/42/5
f 58/60/5 40/42/5 59/61/5
f 62/64/6 35/35/6 36/38/6
f 62/64/6 36/38/6 63/65/6
