# Blender v2.82 (sub 7) OBJ File: 'loop.blend'
# www.blender.org
mtllib loop_angled_more2.mtl
v -1.128766 1.071473 0.778488
v -1.143534 1.057712 0.927786
v -1.143534 1.207974 0.941635
v -1.128766 1.221735 0.792337
v -0.225079 1.126893 0.177205
v -0.375010 1.128248 0.162503
v -0.375010 1.278510 0.176353
v -0.225079 1.277155 0.191054
v 0.263994 1.096900 0.502619
v 0.168418 1.107589 0.386647
v 0.168418 1.257851 0.400496
v 0.263994 1.247162 0.516469
v -0.801979 1.116361 0.291476
v -0.918438 1.107589 0.386647
v -0.918438 1.257851 0.400496
v -0.801979 1.266623 0.305326
v -0.524941 1.126893 0.177205
v -0.669111 1.122879 0.220757
v -0.669111 1.273141 0.234607
v -0.524941 1.277155 0.191054
v 0.378748 1.071473 0.778488
v 0.335014 1.084705 0.634926
v 0.335014 1.234967 0.648775
v 0.378748 1.221735 0.792337
v 0.051959 1.116361 0.291476
v -0.080908 1.122879 0.220757
v -0.080908 1.273141 0.234607
v 0.051959 1.266623 0.305326
v -1.014014 1.096900 0.502619
v -1.085033 1.084705 0.634926
v -1.085033 1.234967 0.648775
v -1.014014 1.247162 0.516469
v 0.393514 1.057712 0.927786
v 0.393514 1.207974 0.941635
v -1.133192 1.045104 1.078076
v -1.133192 1.195366 1.091926
v -0.224197 0.989359 1.682882
v -0.375008 0.987995 1.697673
v -0.375008 1.138258 1.711523
v -0.224197 1.139621 1.696732
v 0.267746 1.019528 1.355563
v 0.171610 1.008776 1.472211
v 0.171610 1.159039 1.486061
v 0.267746 1.169790 1.369413
v -0.804485 0.999953 1.567944
v -0.921628 1.008776 1.472212
v -0.921628 1.159038 1.486062
v -0.804485 1.150215 1.581793
v -0.525821 0.989359 1.682882
v -0.670836 0.993396 1.639078
v -0.670836 1.143658 1.652928
v -0.525821 1.139621 1.696732
v 0.383172 1.045104 1.078075
v 0.339182 1.031794 1.222479
v 0.339182 1.182056 1.236328
v 0.383172 1.195366 1.091925
v 0.054467 0.999953 1.567943
v -0.079181 0.993396 1.639077
v -0.079181 1.143659 1.652926
v 0.054467 1.150215 1.581792
v -1.017766 1.019528 1.355564
v -1.089201 1.031794 1.222480
v -1.089201 1.182056 1.236329
v -1.017766 1.169790 1.369414
vt 0.875000 0.670484
vt 1.000000 0.670484
vt 1.000000 0.795484
vt 0.875000 0.795484
vt -0.125000 0.670484
vt 0.000000 0.670484
vt 0.000000 0.795484
vt -0.125000 0.795484
vt -0.625000 0.670484
vt -0.500000 0.670484
vt -0.500000 0.795484
vt -0.625000 0.795484
vt 0.375000 0.670484
vt 0.500000 0.670484
vt 0.500000 0.795484
vt 0.375000 0.795484
vt 0.125000 0.670484
vt 0.250000 0.670484
vt 0.250000 0.795484
vt 0.125000 0.795484
vt -0.875000 0.670484
vt -0.750000 0.670484
vt -0.750000 0.795484
vt -0.875000 0.795484
vt -0.375000 0.670484
vt -0.250000 0.670484
vt -0.250000 0.795484
vt -0.375000 0.795484
vt 0.625000 0.670484
vt 0.750000 0.670484
vt 0.750000 0.795484
vt 0.625000 0.795484
vt -1.000000 0.670484
vt -1.000000 0.795484
vt 0.875000 0.875000
vt 1.000000 0.875000
vt 1.000000 1.000000
vt 0.875000 1.000000
vt -0.125000 0.875000
vt 0.000000 0.875000
vt 0.000000 1.000000
vt -0.125000 1.000000
vt -0.625000 0.875000
vt -0.500000 0.875000
vt -0.500000 1.000000
vt -0.625000 1.000000
vt 0.375000 0.875000
vt 0.500000 0.875000
vt 0.500000 1.000000
vt 0.375000 1.000000
vt 0.125000 0.875000
vt 0.250000 0.875000
vt 0.250000 1.000000
vt 0.125000 1.000000
vt -0.875000 0.875000
vt -0.750000 0.875000
vt -0.750000 1.000000
vt -0.875000 1.000000
vt -0.375000 0.875000
vt -0.250000 0.875000
vt -0.250000 1.000000
vt -0.375000 1.000000
vt 0.625000 0.875000
vt 0.750000 0.875000
vt 0.750000 1.000000
vt 0.625000 1.000000
vt -1.000000 0.875000
vt -1.000000 1.000000
vn -0.9952 0.0090 -0.0976
vn 0.0980 0.0913 -0.9910
vn 0.7730 0.0582 -0.6317
vn -0.6344 0.0709 -0.7698
vn -0.2903 0.0878 -0.9529
vn 0.9569 0.0266 -0.2891
vn 0.4714 0.0809 -0.8782
vn -0.8819 0.0433 -0.4694
vn -0.7730 0.0582 -0.6317
vn 0.6344 0.0709 -0.7698
vn 0.9952 0.0090 -0.0976
vn -0.0980 0.0913 -0.9910
vn -0.4714 0.0809 -0.8782
vn 0.8819 0.0433 -0.4694
vn 0.2903 0.0878 -0.9529
vn -0.9569 0.0266 -0.2891
vn 0.9977 0.0063 -0.0681
vn 0.6344 0.0709 -0.7697
vn -0.6344 0.0709 -0.7697
vn -0.9977 0.0063 -0.0681
usemtl Default_OBJ.008
s off
f 1/1/1 2/2/1 3/3/1
f 1/1/1 3/3/1 4/4/1
f 5/5/2 6/6/2 7/7/2
f 5/5/2 7/7/2 8/8/2
f 9/9/3 10/10/3 11/11/3
f 9/9/3 11/11/3 12/12/3
f 13/13/4 14/14/4 15/15/4
f 13/13/4 15/15/4 16/16/4
f 17/17/5 18/18/5 19/19/5
f 17/17/5 19/19/5 20/20/5
f 21/21/6 22/22/6 23/23/6
f 21/21/6 23/23/6 24/24/6
f 25/25/7 26/26/7 27/27/7
f 25/25/7 27/27/7 28/28/7
f 29/29/8 30/30/8 31/31/8
f 29/29/8 31/31/8 32/32/8
f 14/14/9 29/29/9 32/32/9
f 14/14/9 32/32/9 15/15/9
f 10/10/10 25/25/10 28/28/10
f 10/10/10 28/28/10 11/11/10
f 33/33/11 21/21/11 24/24/11
f 33/33/11 24/24/11 34/34/11
f 6/6/12 17/17/12 20/20/12
f 6/6/12 20/20/12 7/7/12
f 18/18/13 13/13/13 16/16/13
f 18/18/13 16/16/13 19/19/13
f 22/22/14 9/9/14 12/12/14
f 22/22/14 12/12/14 23/23/14
f 26/26/15 5/5/15 8/8/15
f 26/26/15 8/8/15 27/27/15
f 30/30/16 1/1/16 4/4/16
f 30/30/16 4/4/16 31/31/16
f 35/35/17 2/36/17 3/37/17
f 35/35/17 3/37/17 36/38/17
f 37/39/12 38/40/12 39/41/12
f 37/39/12 39/41/12 40/42/12
f 41/43/9 42/44/9 43/45/9
f 41/43/9 43/45/9 44/46/9
f 45/47/18 46/48/18 47/49/18
f 45/47/18 47/49/18 48/50/18
f 49/51/15 50/52/15 51/53/15
f 49/51/15 51/53/15 52/54/15
f 53/55/16 54/56/16 55/57/16
f 53/55/16 55/57/16 56/58/16
f 57/59/13 58/60/13 59/61/13
f 57/59/13 59/61/13 60/62/13
f 61/63/14 62/64/14 63/65/14
f 61/63/14 63/65/14 64/66/14
f 46/48/3 61/63/3 64/66/3
f 46/48/3 64/66/3 47/49/3
f 42/44/19 57/59/19 60/62/19
f 42/44/19 60/62/19 43/45/19
f 33/67/20 53/55/20 56/58/20
f 33/67/20 56/58/20 34/68/20
f 38/40/2 49/51/2 52/54/2
f 38/40/2 52/54/2 39/41/2
f 50/52/7 45/47/7 48/50/7
f 50/52/7 48/50/7 51/53/7
f 54/56/8 41/43/8 44/46/8
f 54/56/8 44/46/8 55/57/8
f 58/60/5 37/39/5 40/42/5
f 58/60/5 40/42/5 59/61/5
f 62/64/6 35/35/6 36/38/6
f 62/64/6 36/38/6 63/65/6
