# Blender v2.82 (sub 7) OBJ File: ''
# www.blender.org
mtllib loopm.mtl
v -1.000000 0.795484 0.000000
v 1.000000 0.795484 0.000000
v 0.000000 0.795484 0.000000
v -0.500000 0.795484 0.000000
v 0.500000 0.795484 0.000000
v -0.750000 0.795484 0.000000
v 0.250000 0.795484 0.000000
v -0.250000 0.795484 0.000000
v 0.750000 0.795484 0.000000
v 1.000000 0.670484 0.000000
v -0.875000 0.795484 0.000000
v 0.125000 0.795484 0.000000
v 0.000000 0.670484 0.000000
v -0.375000 0.795484 0.000000
v 0.625000 0.795484 0.000000
v -0.500000 0.670484 0.000000
v 0.500000 0.670484 0.000000
v -0.625000 0.795484 0.000000
v 0.375000 0.795484 0.000000
v -0.125000 0.795484 0.000000
v -1.000000 0.670484 0.000000
v 0.875000 0.795484 0.000000
v 0.250000 0.670484 0.000000
v -0.750000 0.670484 0.000000
v -0.250000 0.670484 0.000000
v 0.750000 0.670484 0.000000
v 0.625000 0.670484 0.000000
v -0.375000 0.670484 0.000000
v -0.875000 0.670484 0.000000
v 0.125000 0.670484 0.000000
v 0.375000 0.670484 0.000000
v -0.625000 0.670484 0.000000
v -0.125000 0.670484 0.000000
v 0.875000 0.670484 0.000000
v -1.000000 1.000000 0.000000
v 1.000000 1.000000 0.000000
v 0.000000 1.000000 0.000000
v -0.500000 1.000000 0.000000
v 0.500000 1.000000 0.000000
v -0.750000 1.000000 0.000000
v 0.250000 1.000000 0.000000
v -0.250000 1.000000 0.000000
v 0.750000 1.000000 0.000000
v 1.000000 0.875000 0.000000
v -0.875000 1.000000 0.000000
v 0.125000 1.000000 0.000000
v 0.000000 0.875000 0.000000
v -0.375000 1.000000 0.000000
v 0.625000 1.000000 0.000000
v -0.500000 0.875000 0.000000
v 0.500000 0.875000 0.000000
v -0.625000 1.000000 0.000000
v 0.375000 1.000000 0.000000
v -0.125000 1.000000 0.000000
v -1.000000 0.875000 0.000000
v 0.875000 1.000000 0.000000
v 0.250000 0.875000 0.000000
v -0.750000 0.875000 0.000000
v -0.250000 0.875000 0.000000
v 0.750000 0.875000 0.000000
v 0.625000 0.875000 0.000000
v -0.375000 0.875000 0.000000
v -0.875000 0.875000 0.000000
v 0.125000 0.875000 0.000000
v 0.375000 0.875000 0.000000
v -0.625000 0.875000 0.000000
v -0.125000 0.875000 0.000000
v 0.875000 0.875000 0.000000
vt 0.937500 0.937500
vt 1.000000 0.937500
vt 1.000000 1.000000
vt 0.937500 1.000000
vt 0.437500 0.937500
vt 0.500000 0.937500
vt 0.500000 1.000000
vt 0.437500 1.000000
vt 0.187500 0.937500
vt 0.250000 0.937500
vt 0.250000 1.000000
vt 0.187500 1.000000
vt 0.687500 0.937500
vt 0.750000 0.937500
vt 0.750000 1.000000
vt 0.687500 1.000000
vt 0.562500 0.937500
vt 0.625000 0.937500
vt 0.625000 1.000000
vt 0.562500 1.000000
vt 0.062500 0.937500
vt 0.125000 0.937500
vt 0.125000 1.000000
vt 0.062500 1.000000
vt 0.312500 0.937500
vt 0.375000 0.937500
vt 0.375000 1.000000
vt 0.312500 1.000000
vt 0.812500 0.937500
vt 0.875000 0.937500
vt 0.875000 1.000000
vt 0.812500 1.000000
vt 0.000000 0.937500
vt 0.000000 1.000000
vt 0.937500 0.937500
vt 1.000000 0.937500
vt 1.000000 1.000000
vt 0.937500 1.000000
vt 0.437500 0.937500
vt 0.500000 0.937500
vt 0.500000 1.000000
vt 0.437500 1.000000
vt 0.187500 0.937500
vt 0.250000 0.937500
vt 0.250000 1.000000
vt 0.187500 1.000000
vt 0.687500 0.937500
vt 0.750000 0.937500
vt 0.750000 1.000000
vt 0.687500 1.000000
vt 0.562500 0.937500
vt 0.625000 0.937500
vt 0.625000 1.000000
vt 0.562500 1.000000
vt 0.062500 0.937500
vt 0.125000 0.937500
vt 0.125000 1.000000
vt 0.062500 1.000000
vt 0.312500 0.937500
vt 0.375000 0.937500
vt 0.375000 1.000000
vt 0.312500 1.000000
vt 0.812500 0.937500
vt 0.875000 0.937500
vt 0.875000 1.000000
vt 0.812500 1.000000
vt 0.000000 0.937500
vt 0.000000 1.000000
vn 0.0000 -0.0000 1.0000
usemtl None
s off
f 34/1/1 10/2/1 2/3/1 22/4/1
f 33/5/1 13/6/1 3/7/1 20/8/1
f 32/9/1 16/10/1 4/11/1 18/12/1
f 31/13/1 17/14/1 5/15/1 19/16/1
f 30/17/1 23/18/1 7/19/1 12/20/1
f 29/21/1 24/22/1 6/23/1 11/24/1
f 28/25/1 25/26/1 8/27/1 14/28/1
f 27/29/1 26/30/1 9/31/1 15/32/1
f 17/14/1 27/29/1 15/32/1 5/15/1
f 16/10/1 28/25/1 14/28/1 4/11/1
f 21/33/1 29/21/1 11/24/1 1/34/1
f 13/6/1 30/17/1 12/20/1 3/7/1
f 23/18/1 31/13/1 19/16/1 7/19/1
f 24/22/1 32/9/1 18/12/1 6/23/1
f 25/26/1 33/5/1 20/8/1 8/27/1
f 26/30/1 34/1/1 22/4/1 9/31/1
f 68/35/1 44/36/1 36/37/1 56/38/1
f 67/39/1 47/40/1 37/41/1 54/42/1
f 66/43/1 50/44/1 38/45/1 52/46/1
f 65/47/1 51/48/1 39/49/1 53/50/1
f 64/51/1 57/52/1 41/53/1 46/54/1
f 63/55/1 58/56/1 40/57/1 45/58/1
f 62/59/1 59/60/1 42/61/1 48/62/1
f 61/63/1 60/64/1 43/65/1 49/66/1
f 51/48/1 61/63/1 49/66/1 39/49/1
f 50/44/1 62/59/1 48/62/1 38/45/1
f 55/67/1 63/55/1 45/58/1 35/68/1
f 47/40/1 64/51/1 46/54/1 37/41/1
f 57/52/1 65/47/1 53/50/1 41/53/1
f 58/56/1 66/43/1 52/46/1 40/57/1
f 59/60/1 67/39/1 54/42/1 42/61/1
f 60/64/1 68/35/1 56/38/1 43/65/1
