# Blender v2.82 (sub 7) OBJ File: ''
# www.blender.org
mtllib pole_cap.mtl
v -0.546553 0.669487 1.446466
v -0.200891 0.669487 1.446466
v -0.546553 1.015149 1.446466
v -0.200891 1.015149 1.446466
v -0.546553 0.842318 1.446466
v -0.373722 0.669487 1.446466
v -0.200891 0.842318 1.446466
v -0.373722 1.015149 1.446466
v -0.373722 0.842318 1.446466
vt 0.500000 0.500000
vt 1.000000 0.500000
vt 1.000000 1.000000
vt 0.500000 1.000000
vt 0.000000 0.500000
vt 0.000000 1.000000
vt 0.000000 0.000000
vt 0.500000 0.000000
vt 1.000000 0.000000
vn 0.0000 0.0000 1.0000
usemtl None
s off
f 9/1/1 7/2/1 4/3/1 8/4/1
f 5/5/1 9/1/1 8/4/1 3/6/1
f 1/7/1 6/8/1 9/1/1 5/5/1
f 6/8/1 2/9/1 7/2/1 9/1/1
