# Blender v2.82 (sub 7) OBJ File: ''
# www.blender.org
mtllib cloth_diamond.mtl
v 0.189118 -0.000000 0.984717
v 0.189118 -0.000000 1.171759
v 0.095597 -0.000000 1.078238
v -0.184969 -0.000000 0.610630
v -0.184969 -0.000000 0.797673
v -0.278490 -0.000000 0.704151
v 0.002075 -0.000000 0.423587
v 0.002074 -0.000000 0.610630
v -0.091447 -0.000000 0.517109
v -0.372012 -0.000000 0.797673
v -0.372012 -0.000000 0.984716
v -0.465533 -0.000000 0.891195
v 0.002075 -0.000000 1.171760
v 0.002075 -0.000000 1.358802
v -0.091447 -0.000000 1.265281
v -0.184969 -0.000000 0.984717
v -0.184969 -0.000000 1.171759
v -0.278490 -0.000000 1.078238
v 0.002075 -0.000000 0.797673
v 0.002075 -0.000000 0.984716
v -0.091447 -0.000000 0.891195
v 0.376161 -0.000000 0.797673
v 0.376160 -0.000000 0.984717
v 0.282639 -0.000000 0.891195
v 0.189118 -0.000000 0.610630
v 0.189117 -0.000000 0.797673
v 0.095596 -0.000000 0.704152
v 0.282639 -0.000000 0.517109
v 0.282639 -0.000000 0.704151
v 0.189117 -0.000000 0.423587
v 0.095596 -0.000000 0.517108
v 0.095596 -0.000000 0.891195
v -0.091447 -0.000000 0.704151
v 0.282639 -0.000000 1.078238
v -0.091447 -0.000000 1.078238
v -0.278491 -0.000000 0.891195
v -0.465534 -0.000000 0.704151
v -0.559055 -0.000000 0.797673
v -0.184969 -0.000000 0.423587
v -0.278491 -0.000000 0.517108
v -0.091447 -0.000000 0.330065
v 0.095596 -0.000000 0.330066
v 0.002074 -0.000000 0.236544
v -0.372012 -0.000000 0.610629
v 0.095596 -0.000000 1.265281
v 0.469682 -0.000000 0.704152
v 0.469682 -0.000000 0.891195
v 0.376160 -0.000000 0.610630
v 0.563203 -0.000000 0.797673
vt 0.500000 0.875000
vt 0.375000 1.000000
vt 0.375000 0.875000
vt 0.500000 0.375000
vt 0.375000 0.500000
vt 0.375000 0.375000
vt 0.750000 0.375000
vt 0.625000 0.500000
vt 0.625000 0.375000
vt 0.250000 0.375000
vt 0.125000 0.500000
vt 0.125000 0.375000
vt 0.250000 0.875000
vt 0.125000 1.000000
vt 0.125000 0.875000
vt 0.250000 0.625000
vt 0.125000 0.750000
vt 0.125000 0.625000
vt 0.500000 0.625000
vt 0.375000 0.750000
vt 0.375000 0.625000
vt 0.750000 0.875000
vt 0.625000 1.000000
vt 0.625000 0.875000
vt 0.750000 0.625000
vt 0.625000 0.750000
vt 0.625000 0.625000
vt 0.875000 0.625000
vt 0.750000 0.750000
vt 0.875000 0.500000
vt 0.750000 0.500000
vt 0.500000 0.750000
vt 0.500000 0.500000
vt 0.500000 1.000000
vt 0.250000 0.750000
vt 0.250000 0.500000
vt 0.250000 0.250000
vt 0.125000 0.250000
vt 0.625000 0.250000
vt 0.500000 0.250000
vt 0.750000 0.250000
vt 0.875000 0.375000
vt 0.875000 0.250000
vt 0.375000 0.250000
vt 0.250000 1.000000
vt 0.875000 0.875000
vt 0.750000 1.000000
vt 0.875000 0.750000
vt 0.875000 1.000000
vn -0.0000 -1.0000 -0.0000
usemtl None.001
s 1
f 1/1/1 2/2/1 3/3/1
f 4/4/1 5/5/1 6/6/1
f 7/7/1 8/8/1 9/9/1
f 10/10/1 11/11/1 12/12/1
f 13/13/1 14/14/1 15/15/1
f 16/16/1 17/17/1 18/18/1
f 19/19/1 20/20/1 21/21/1
f 22/22/1 23/23/1 24/24/1
f 25/25/1 26/26/1 27/27/1
f 28/28/1 29/29/1 25/25/1
f 30/30/1 25/25/1 31/31/1
f 27/27/1 32/32/1 19/19/1
f 8/8/1 19/19/1 33/33/1
f 31/31/1 27/27/1 8/8/1
f 24/24/1 34/34/1 1/1/1
f 26/26/1 1/1/1 32/32/1
f 29/29/1 24/24/1 26/26/1
f 21/21/1 35/35/1 16/16/1
f 5/5/1 16/16/1 36/36/1
f 33/33/1 21/21/1 5/5/1
f 36/36/1 18/18/1 11/11/1
f 35/35/1 15/15/1 17/17/1
f 37/37/1 12/12/1 38/38/1
f 9/9/1 33/33/1 4/4/1
f 39/39/1 4/4/1 40/40/1
f 41/41/1 9/9/1 39/39/1
f 42/42/1 31/31/1 7/7/1
f 43/43/1 7/7/1 41/41/1
f 6/6/1 36/36/1 10/10/1
f 44/44/1 10/10/1 37/37/1
f 40/40/1 6/6/1 44/44/1
f 3/3/1 45/45/1 13/13/1
f 20/20/1 13/13/1 35/35/1
f 32/32/1 3/3/1 20/20/1
f 46/46/1 47/47/1 22/22/1
f 48/48/1 22/22/1 29/29/1
f 1/1/1 34/34/1 2/2/1
f 4/4/1 33/33/1 5/5/1
f 7/7/1 31/31/1 8/8/1
f 10/10/1 36/36/1 11/11/1
f 13/13/1 45/45/1 14/14/1
f 16/16/1 35/35/1 17/17/1
f 19/19/1 32/32/1 20/20/1
f 22/22/1 47/47/1 23/23/1
f 25/25/1 29/29/1 26/26/1
f 28/28/1 48/48/1 29/29/1
f 30/30/1 28/28/1 25/25/1
f 27/27/1 26/26/1 32/32/1
f 8/8/1 27/27/1 19/19/1
f 31/31/1 25/25/1 27/27/1
f 24/24/1 23/23/1 34/34/1
f 26/26/1 24/24/1 1/1/1
f 29/29/1 22/22/1 24/24/1
f 21/21/1 20/20/1 35/35/1
f 5/5/1 21/21/1 16/16/1
f 33/33/1 19/19/1 21/21/1
f 36/36/1 16/16/1 18/18/1
f 35/35/1 13/13/1 15/15/1
f 37/37/1 10/10/1 12/12/1
f 9/9/1 8/8/1 33/33/1
f 39/39/1 9/9/1 4/4/1
f 41/41/1 7/7/1 9/9/1
f 42/42/1 30/30/1 31/31/1
f 43/43/1 42/42/1 7/7/1
f 6/6/1 5/5/1 36/36/1
f 44/44/1 6/6/1 10/10/1
f 40/40/1 4/4/1 6/6/1
f 3/3/1 2/2/1 45/45/1
f 20/20/1 3/3/1 13/13/1
f 32/32/1 1/1/1 3/3/1
f 46/46/1 49/49/1 47/47/1
f 48/48/1 46/46/1 22/22/1
