# Blender v2.82 (sub 7) OBJ File: ''
# www.blender.org
mtllib belt_skinnier.mtl
v -0.537335 0.008982 -0.028530
v -0.537335 0.008982 0.048389
v -0.537335 0.166033 0.048389
v -0.537335 0.166033 -0.028530
v -0.537335 0.323083 -0.028530
v -0.537335 0.323083 0.048389
v -0.537335 0.480134 0.048389
v -0.537335 -0.305120 -0.028530
v -0.537335 -0.305120 0.048389
v -0.537335 -0.148069 0.048389
v -0.537335 0.480134 -0.028530
v -0.537334 -0.462170 -0.028530
v -0.537334 -0.619221 -0.028530
v -0.537335 -0.462170 0.048389
v -0.537335 0.637184 0.048389
v -0.537335 0.637184 -0.028530
v -0.537335 -0.148069 -0.028530
v -0.537335 -0.619221 0.048389
vt 0.500000 0.000000
vt 0.500000 0.125000
vt 0.375000 0.125000
vt 0.375000 0.000000
vt 0.250000 0.000000
vt 0.250000 0.125000
vt 0.125000 0.125000
vt 0.750000 0.000000
vt 0.750000 0.125000
vt 0.625000 0.125000
vt 0.125000 0.000000
vt 0.875000 0.000000
vt 1.000000 0.000000
vt 0.875000 0.125000
vt 0.000000 0.125000
vt 0.000000 0.000000
vt 0.625000 0.000000
vt 1.000000 0.125000
vn -1.0000 0.0000 0.0000
usemtl Default_OBJ.004
s 1
f 1/1/1 2/2/1 3/3/1
f 4/4/1 1/1/1 3/3/1
f 5/5/1 6/6/1 7/7/1
f 8/8/1 9/9/1 10/10/1
f 11/11/1 5/5/1 7/7/1
f 12/12/1 13/13/1 14/14/1
f 15/15/1 16/16/1 7/7/1
f 17/17/1 8/8/1 10/10/1
f 9/9/1 8/8/1 14/14/1
f 6/6/1 5/5/1 3/3/1
f 2/2/1 1/1/1 10/10/1
f 13/13/1 18/18/1 14/14/1
f 8/8/1 12/12/1 14/14/1
f 1/1/1 17/17/1 10/10/1
f 5/5/1 4/4/1 3/3/1
f 16/16/1 11/11/1 7/7/1
