# Blender v2.82 (sub 7) OBJ File: ''
# www.blender.org
mtllib cloth_shorter_81verts.mtl
v 0.000000 0.000000 1.028379
v 0.000000 0.000000 0.321289
v 0.353545 0.000000 1.028379
v -0.353545 0.000000 1.028379
v 0.000000 0.000000 0.674834
v -0.353545 0.000000 0.321289
v 0.353545 0.000000 0.321289
v 0.353545 0.000000 0.674834
v -0.353545 0.000000 0.674834
v -0.176773 0.000000 1.028379
v 0.000000 0.000000 0.498061
v 0.176773 0.000000 0.321289
v 0.176773 0.000000 1.028379
v 0.000000 0.000000 0.851607
v -0.176773 0.000000 0.321289
v 0.353545 0.000000 0.498061
v 0.353545 0.000000 0.851607
v 0.176773 0.000000 0.674834
v -0.353545 0.000000 0.498061
v -0.353545 0.000000 0.851607
v -0.176773 0.000000 0.674834
v -0.176773 0.000000 0.851607
v 0.176773 0.000000 0.851607
v 0.176773 0.000000 0.498061
v -0.176773 0.000000 0.498061
v -0.088386 0.000000 1.028379
v 0.000000 0.000000 0.409675
v 0.088386 0.000000 0.321289
v 0.265159 0.000000 1.028379
v 0.000000 0.000000 0.763220
v -0.265159 0.000000 0.321289
v 0.353545 0.000000 0.409675
v 0.353545 0.000000 0.763220
v 0.088386 0.000000 0.674834
v -0.353545 0.000000 0.409675
v -0.353545 0.000000 0.763220
v -0.265159 0.000000 0.674834
v -0.265159 0.000000 1.028379
v 0.000000 0.000000 0.586448
v 0.265159 0.000000 0.321289
v 0.088386 0.000000 1.028379
v 0.000000 0.000000 0.939993
v -0.088386 0.000000 0.321289
v 0.353545 0.000000 0.586448
v 0.353545 0.000000 0.939993
v 0.265159 0.000000 0.674834
v -0.353545 0.000000 0.586448
v -0.353545 0.000000 0.939993
v -0.088386 0.000000 0.674834
v -0.176773 0.000000 0.763220
v -0.176773 0.000000 0.939993
v -0.265159 0.000000 0.851607
v -0.088386 0.000000 0.851607
v 0.176773 0.000000 0.763220
v 0.176773 0.000000 0.939993
v 0.088386 0.000000 0.851607
v 0.265159 0.000000 0.851607
v 0.176773 0.000000 0.409675
v 0.176773 0.000000 0.586448
v 0.088386 0.000000 0.498061
v 0.265159 0.000000 0.498061
v -0.176773 0.000000 0.409675
v -0.176773 0.000000 0.586448
v -0.265159 0.000000 0.498061
v -0.088386 0.000000 0.498061
v -0.088386 0.000000 0.586448
v -0.265159 0.000000 0.586448
v -0.265159 0.000000 0.409675
v 0.265159 0.000000 0.586448
v 0.088386 0.000000 0.586448
v 0.088386 0.000000 0.409675
v 0.265159 0.000000 0.939993
v 0.088386 0.000000 0.939993
v 0.088386 0.000000 0.763220
v -0.088386 0.000000 0.939993
v -0.265159 0.000000 0.939993
v -0.265159 0.000000 0.763220
v -0.088386 0.000000 0.763220
v 0.265159 0.000000 0.763220
v 0.265159 0.000000 0.409675
v -0.088386 0.000000 0.409675
vt 0.437500 0.437500
vt 0.500000 0.437500
vt 0.500000 0.500000
vt 0.437500 0.500000
vt 0.687500 0.437500
vt 0.750000 0.437500
vt 0.750000 0.500000
vt 0.687500 0.500000
vt 0.687500 0.187500
vt 0.750000 0.187500
vt 0.750000 0.250000
vt 0.687500 0.250000
vt 0.437500 0.187500
vt 0.500000 0.187500
vt 0.500000 0.250000
vt 0.437500 0.250000
vt 0.312500 0.187500
vt 0.375000 0.187500
vt 0.375000 0.250000
vt 0.312500 0.250000
vt 0.312500 0.062500
vt 0.375000 0.062500
vt 0.375000 0.125000
vt 0.312500 0.125000
vt 0.437500 0.062500
vt 0.500000 0.062500
vt 0.500000 0.125000
vt 0.437500 0.125000
vt 0.562500 0.187500
vt 0.625000 0.187500
vt 0.625000 0.250000
vt 0.562500 0.250000
vt 0.562500 0.062500
vt 0.625000 0.062500
vt 0.625000 0.125000
vt 0.562500 0.125000
vt 0.687500 0.062500
vt 0.750000 0.062500
vt 0.750000 0.125000
vt 0.687500 0.125000
vt 0.562500 0.437500
vt 0.625000 0.437500
vt 0.625000 0.500000
vt 0.562500 0.500000
vt 0.562500 0.312500
vt 0.625000 0.312500
vt 0.625000 0.375000
vt 0.562500 0.375000
vt 0.687500 0.312500
vt 0.750000 0.312500
vt 0.750000 0.375000
vt 0.687500 0.375000
vt 0.312500 0.437500
vt 0.375000 0.437500
vt 0.375000 0.500000
vt 0.312500 0.500000
vt 0.312500 0.312500
vt 0.375000 0.312500
vt 0.375000 0.375000
vt 0.312500 0.375000
vt 0.437500 0.312500
vt 0.500000 0.312500
vt 0.500000 0.375000
vt 0.437500 0.375000
vt 0.250000 0.312500
vt 0.250000 0.375000
vt 0.250000 0.250000
vt 0.250000 0.437500
vt 0.250000 0.500000
vt 0.625000 0.000000
vt 0.687500 0.000000
vt 0.750000 0.000000
vt 0.500000 0.000000
vt 0.562500 0.000000
vt 0.375000 0.000000
vt 0.437500 0.000000
vt 0.250000 0.062500
vt 0.250000 0.125000
vt 0.250000 0.000000
vt 0.312500 0.000000
vt 0.250000 0.187500
vn 0.0000 1.0000 0.0000
usemtl None
s off
f 81/1/1 27/2/1 2/3/1 43/4/1
f 80/5/1 32/6/1 7/7/1 40/8/1
f 79/9/1 33/10/1 8/11/1 46/12/1
f 78/13/1 30/14/1 5/15/1 49/16/1
f 77/17/1 50/18/1 21/19/1 37/20/1
f 76/21/1 51/22/1 22/23/1 52/24/1
f 75/25/1 42/26/1 14/27/1 53/28/1
f 74/29/1 54/30/1 18/31/1 34/32/1
f 73/33/1 55/34/1 23/35/1 56/36/1
f 72/37/1 45/38/1 17/39/1 57/40/1
f 71/41/1 58/42/1 12/43/1 28/44/1
f 70/45/1 59/46/1 24/47/1 60/48/1
f 69/49/1 44/50/1 16/51/1 61/52/1
f 68/53/1 62/54/1 15/55/1 31/56/1
f 67/57/1 63/58/1 25/59/1 64/60/1
f 66/61/1 39/62/1 11/63/1 65/64/1
f 63/58/1 66/61/1 65/64/1 25/59/1
f 21/19/1 49/16/1 66/61/1 63/58/1
f 49/16/1 5/15/1 39/62/1 66/61/1
f 47/65/1 67/57/1 64/60/1 19/66/1
f 9/67/1 37/20/1 67/57/1 47/65/1
f 37/20/1 21/19/1 63/58/1 67/57/1
f 35/68/1 68/53/1 31/56/1 6/69/1
f 19/66/1 64/60/1 68/53/1 35/68/1
f 64/60/1 25/59/1 62/54/1 68/53/1
f 59/46/1 69/49/1 61/52/1 24/47/1
f 18/31/1 46/12/1 69/49/1 59/46/1
f 46/12/1 8/11/1 44/50/1 69/49/1
f 39/62/1 70/45/1 60/48/1 11/63/1
f 5/15/1 34/32/1 70/45/1 39/62/1
f 34/32/1 18/31/1 59/46/1 70/45/1
f 27/2/1 71/41/1 28/44/1 2/3/1
f 11/63/1 60/48/1 71/41/1 27/2/1
f 60/48/1 24/47/1 58/42/1 71/41/1
f 55/34/1 72/37/1 57/40/1 23/35/1
f 13/70/1 29/71/1 72/37/1 55/34/1
f 29/71/1 3/72/1 45/38/1 72/37/1
f 42/26/1 73/33/1 56/36/1 14/27/1
f 1/73/1 41/74/1 73/33/1 42/26/1
f 41/74/1 13/70/1 55/34/1 73/33/1
f 30/14/1 74/29/1 34/32/1 5/15/1
f 14/27/1 56/36/1 74/29/1 30/14/1
f 56/36/1 23/35/1 54/30/1 74/29/1
f 51/22/1 75/25/1 53/28/1 22/23/1
f 10/75/1 26/76/1 75/25/1 51/22/1
f 26/76/1 1/73/1 42/26/1 75/25/1
f 48/77/1 76/21/1 52/24/1 20/78/1
f 4/79/1 38/80/1 76/21/1 48/77/1
f 38/80/1 10/75/1 51/22/1 76/21/1
f 36/81/1 77/17/1 37/20/1 9/67/1
f 20/78/1 52/24/1 77/17/1 36/81/1
f 52/24/1 22/23/1 50/18/1 77/17/1
f 50/18/1 78/13/1 49/16/1 21/19/1
f 22/23/1 53/28/1 78/13/1 50/18/1
f 53/28/1 14/27/1 30/14/1 78/13/1
f 54/30/1 79/9/1 46/12/1 18/31/1
f 23/35/1 57/40/1 79/9/1 54/30/1
f 57/40/1 17/39/1 33/10/1 79/9/1
f 58/42/1 80/5/1 40/8/1 12/43/1
f 24/47/1 61/52/1 80/5/1 58/42/1
f 61/52/1 16/51/1 32/6/1 80/5/1
f 62/54/1 81/1/1 43/4/1 15/55/1
f 25/59/1 65/64/1 81/1/1 62/54/1
f 65/64/1 11/63/1 27/2/1 81/1/1
