# Blender v2.82 (sub 7) OBJ File: ''
# www.blender.org
mtllib cloth_shorter_64verts.mtl
v 0.049569 0.000000 1.034780
v -0.347205 0.000000 1.034780
v 0.049569 0.000000 0.638006
v -0.347205 0.000000 0.638006
v -0.148818 0.000000 1.034780
v 0.049569 0.000000 0.439620
v 0.247955 0.000000 1.034780
v 0.049569 0.000000 0.836393
v 0.247955 0.000000 0.638006
v -0.347205 0.000000 0.439620
v -0.347205 0.000000 0.836393
v -0.148818 0.000000 0.638006
v -0.148818 0.000000 0.836393
v 0.247955 0.000000 0.836393
v 0.247955 0.000000 0.439620
v -0.148818 0.000000 0.439620
v -0.049625 0.000000 1.034780
v 0.049569 0.000000 0.340426
v 0.347149 0.000000 1.034780
v 0.049569 0.000000 0.737200
v 0.148762 0.000000 0.638006
v -0.347205 0.000000 0.340426
v -0.347205 0.000000 0.737200
v -0.248012 0.000000 0.638006
v -0.248012 0.000000 1.034780
v 0.049569 0.000000 0.538813
v 0.148762 0.000000 1.034780
v 0.049569 0.000000 0.935586
v 0.347149 0.000000 0.638006
v -0.347205 0.000000 0.538813
v -0.347205 0.000000 0.935586
v -0.049625 0.000000 0.638006
v -0.148818 0.000000 0.737200
v -0.148818 0.000000 0.935586
v -0.248012 0.000000 0.836393
v -0.049625 0.000000 0.836393
v 0.247955 0.000000 0.737200
v 0.247955 0.000000 0.935586
v 0.148762 0.000000 0.836393
v 0.347149 0.000000 0.836393
v 0.247955 0.000000 0.340426
v 0.247955 0.000000 0.538813
v 0.148762 0.000000 0.439620
v 0.347149 0.000000 0.439620
v -0.148818 0.000000 0.340426
v -0.148818 0.000000 0.538813
v -0.248012 0.000000 0.439620
v -0.049625 0.000000 0.439620
v -0.049625 0.000000 0.538813
v -0.248012 0.000000 0.538813
v -0.248012 0.000000 0.340426
v 0.347149 0.000000 0.538813
v 0.148762 0.000000 0.538813
v 0.148762 0.000000 0.340426
v 0.347149 0.000000 0.935586
v 0.148762 0.000000 0.935586
v 0.148762 0.000000 0.737200
v -0.049625 0.000000 0.935586
v -0.248012 0.000000 0.935586
v -0.248012 0.000000 0.737200
v -0.049625 0.000000 0.737200
v 0.347149 0.000000 0.737200
v 0.347149 0.000000 0.340426
v -0.049625 0.000000 0.340426
vt 0.437500 0.187500
vt 0.500000 0.187500
vt 0.500000 0.250000
vt 0.437500 0.250000
vt 0.312500 0.187500
vt 0.375000 0.187500
vt 0.375000 0.250000
vt 0.312500 0.250000
vt 0.312500 0.062500
vt 0.375000 0.062500
vt 0.375000 0.125000
vt 0.312500 0.125000
vt 0.437500 0.062500
vt 0.500000 0.062500
vt 0.500000 0.125000
vt 0.437500 0.125000
vt 0.562500 0.187500
vt 0.625000 0.187500
vt 0.625000 0.250000
vt 0.562500 0.250000
vt 0.562500 0.062500
vt 0.625000 0.062500
vt 0.625000 0.125000
vt 0.562500 0.125000
vt 0.562500 0.312500
vt 0.625000 0.312500
vt 0.625000 0.375000
vt 0.562500 0.375000
vt 0.312500 0.312500
vt 0.375000 0.312500
vt 0.375000 0.375000
vt 0.312500 0.375000
vt 0.437500 0.312500
vt 0.500000 0.312500
vt 0.500000 0.375000
vt 0.437500 0.375000
vt 0.250000 0.312500
vt 0.250000 0.375000
vt 0.250000 0.250000
vt 0.312500 0.437500
vt 0.250000 0.437500
vt 0.375000 0.437500
vt 0.687500 0.312500
vt 0.687500 0.375000
vt 0.687500 0.250000
vt 0.562500 0.437500
vt 0.500000 0.437500
vt 0.625000 0.437500
vt 0.687500 0.062500
vt 0.687500 0.125000
vt 0.625000 0.000000
vt 0.687500 0.000000
vt 0.500000 0.000000
vt 0.562500 0.000000
vt 0.375000 0.000000
vt 0.437500 0.000000
vt 0.250000 0.062500
vt 0.250000 0.125000
vt 0.250000 0.000000
vt 0.312500 0.000000
vt 0.250000 0.187500
vt 0.687500 0.187500
vt 0.687500 0.437500
vt 0.437500 0.437500
vn 0.0000 1.0000 0.0000
usemtl None
s off
f 61/1/1 20/2/1 3/3/1 32/4/1
f 60/5/1 33/6/1 12/7/1 24/8/1
f 59/9/1 34/10/1 13/11/1 35/12/1
f 58/13/1 28/14/1 8/15/1 36/16/1
f 57/17/1 37/18/1 9/19/1 21/20/1
f 56/21/1 38/22/1 14/23/1 39/24/1
f 53/25/1 42/26/1 15/27/1 43/28/1
f 50/29/1 46/30/1 16/31/1 47/32/1
f 49/33/1 26/34/1 6/35/1 48/36/1
f 46/30/1 49/33/1 48/36/1 16/31/1
f 12/7/1 32/4/1 49/33/1 46/30/1
f 32/4/1 3/3/1 26/34/1 49/33/1
f 30/37/1 50/29/1 47/32/1 10/38/1
f 4/39/1 24/8/1 50/29/1 30/37/1
f 24/8/1 12/7/1 46/30/1 50/29/1
f 10/38/1 47/32/1 51/40/1 22/41/1
f 47/32/1 16/31/1 45/42/1 51/40/1
f 42/26/1 52/43/1 44/44/1 15/27/1
f 9/19/1 29/45/1 52/43/1 42/26/1
f 26/34/1 53/25/1 43/28/1 6/35/1
f 3/3/1 21/20/1 53/25/1 26/34/1
f 21/20/1 9/19/1 42/26/1 53/25/1
f 6/35/1 43/28/1 54/46/1 18/47/1
f 43/28/1 15/27/1 41/48/1 54/46/1
f 38/22/1 55/49/1 40/50/1 14/23/1
f 7/51/1 19/52/1 55/49/1 38/22/1
f 28/14/1 56/21/1 39/24/1 8/15/1
f 1/53/1 27/54/1 56/21/1 28/14/1
f 27/54/1 7/51/1 38/22/1 56/21/1
f 20/2/1 57/17/1 21/20/1 3/3/1
f 8/15/1 39/24/1 57/17/1 20/2/1
f 39/24/1 14/23/1 37/18/1 57/17/1
f 34/10/1 58/13/1 36/16/1 13/11/1
f 5/55/1 17/56/1 58/13/1 34/10/1
f 17/56/1 1/53/1 28/14/1 58/13/1
f 31/57/1 59/9/1 35/12/1 11/58/1
f 2/59/1 25/60/1 59/9/1 31/57/1
f 25/60/1 5/55/1 34/10/1 59/9/1
f 23/61/1 60/5/1 24/8/1 4/39/1
f 11/58/1 35/12/1 60/5/1 23/61/1
f 35/12/1 13/11/1 33/6/1 60/5/1
f 33/6/1 61/1/1 32/4/1 12/7/1
f 13/11/1 36/16/1 61/1/1 33/6/1
f 36/16/1 8/15/1 20/2/1 61/1/1
f 37/18/1 62/62/1 29/45/1 9/19/1
f 14/23/1 40/50/1 62/62/1 37/18/1
f 15/27/1 44/44/1 63/63/1 41/48/1
f 16/31/1 48/36/1 64/64/1 45/42/1
f 48/36/1 6/35/1 18/47/1 64/64/1
