# Blender v2.82 (sub 7) OBJ File: ''
# www.blender.org
mtllib cloth_shorter.mtl
v 0.000000 -0.000000 0.916303
v -0.117235 -0.000000 1.033538
v -0.117235 -0.000000 0.916303
v 0.000000 -0.000000 0.447363
v -0.117235 -0.000000 0.564598
v -0.117235 -0.000000 0.447363
v 0.234470 -0.000000 0.447363
v 0.117235 -0.000000 0.564598
v 0.117235 -0.000000 0.447363
v 0.117235 -0.000000 0.330128
v -0.234470 -0.000000 0.447363
v -0.351705 -0.000000 0.564598
v -0.351705 -0.000000 0.447363
v -0.351705 -0.000000 0.330128
v -0.117235 -0.000000 0.330128
v -0.234470 -0.000000 0.916303
v -0.351705 -0.000000 1.033538
v -0.351705 -0.000000 0.916303
v -0.234470 -0.000000 0.681833
v -0.351705 -0.000000 0.799068
v -0.351705 -0.000000 0.681833
v 0.000000 -0.000000 0.681833
v -0.117235 -0.000000 0.799068
v -0.117235 -0.000000 0.681833
v 0.234470 -0.000000 0.916303
v 0.117235 -0.000000 1.033538
v 0.117235 -0.000000 0.916303
v 0.234470 -0.000000 0.681833
v 0.117235 -0.000000 0.799068
v 0.117235 -0.000000 0.681833
v 0.351705 -0.000000 0.681833
v 0.234470 -0.000000 0.799068
v 0.351705 -0.000000 0.564598
v 0.234470 -0.000000 0.564598
v 0.000000 -0.000000 0.799068
v 0.000000 -0.000000 0.564598
v 0.000000 -0.000000 1.033538
v -0.234470 -0.000000 0.799068
v -0.234470 -0.000000 0.564598
v -0.234470 -0.000000 0.330128
v 0.234470 -0.000000 0.330128
v 0.000000 -0.000000 0.330128
v 0.351705 -0.000000 0.447363
v 0.351705 -0.000000 0.330128
v -0.234470 -0.000000 1.033538
v 0.351705 -0.000000 0.916303
v 0.234470 -0.000000 1.033538
v 0.351705 -0.000000 0.799068
v 0.351705 -0.000000 1.033538
vt 0.500000 0.875000
vt 0.375000 1.000000
vt 0.375000 0.875000
vt 0.500000 0.375000
vt 0.375000 0.500000
vt 0.375000 0.375000
vt 0.750000 0.375000
vt 0.625000 0.500000
vt 0.625000 0.375000
vt 0.250000 0.375000
vt 0.125000 0.500000
vt 0.125000 0.375000
vt 0.250000 0.875000
vt 0.125000 1.000000
vt 0.125000 0.875000
vt 0.250000 0.625000
vt 0.125000 0.750000
vt 0.125000 0.625000
vt 0.500000 0.625000
vt 0.375000 0.750000
vt 0.375000 0.625000
vt 0.750000 0.875000
vt 0.625000 1.000000
vt 0.625000 0.875000
vt 0.750000 0.625000
vt 0.625000 0.750000
vt 0.625000 0.625000
vt 0.875000 0.625000
vt 0.750000 0.750000
vt 0.875000 0.500000
vt 0.750000 0.500000
vt 0.500000 0.750000
vt 0.500000 0.500000
vt 0.500000 1.000000
vt 0.250000 0.750000
vt 0.250000 0.500000
vt 0.250000 0.250000
vt 0.125000 0.250000
vt 0.625000 0.250000
vt 0.500000 0.250000
vt 0.750000 0.250000
vt 0.875000 0.375000
vt 0.875000 0.250000
vt 0.375000 0.250000
vt 0.250000 1.000000
vt 0.875000 0.875000
vt 0.750000 1.000000
vt 0.875000 0.750000
vt 0.875000 1.000000
vn 0.0000 -1.0000 -0.0000
usemtl None.001
s 1
f 1/1/1 2/2/1 3/3/1
f 4/4/1 5/5/1 6/6/1
f 7/7/1 8/8/1 9/9/1
f 11/10/1 12/11/1 13/12/1
f 16/13/1 17/14/1 18/15/1
f 19/16/1 20/17/1 21/18/1
f 22/19/1 23/20/1 24/21/1
f 25/22/1 26/23/1 27/24/1
f 28/25/1 29/26/1 30/27/1
f 31/28/1 32/29/1 28/25/1
f 33/30/1 28/25/1 34/31/1
f 30/27/1 35/32/1 22/19/1
f 8/8/1 22/19/1 36/33/1
f 34/31/1 30/27/1 8/8/1
f 27/24/1 37/34/1 1/1/1
f 29/26/1 1/1/1 35/32/1
f 32/29/1 27/24/1 29/26/1
f 24/21/1 38/35/1 19/16/1
f 5/5/1 19/16/1 39/36/1
f 36/33/1 24/21/1 5/5/1
f 39/36/1 21/18/1 12/11/1
f 38/35/1 18/15/1 20/17/1
f 40/37/1 13/12/1 14/38/1
f 9/9/1 36/33/1 4/4/1
f 10/39/1 4/4/1 42/40/1
f 41/41/1 9/9/1 10/39/1
f 43/42/1 34/31/1 7/7/1
f 44/43/1 7/7/1 41/41/1
f 6/6/1 39/36/1 11/10/1
f 15/44/1 11/10/1 40/37/1
f 42/40/1 6/6/1 15/44/1
f 3/3/1 45/45/1 16/13/1
f 23/20/1 16/13/1 38/35/1
f 35/32/1 3/3/1 23/20/1
f 46/46/1 47/47/1 25/22/1
f 48/48/1 25/22/1 32/29/1
f 1/1/1 37/34/1 2/2/1
f 4/4/1 36/33/1 5/5/1
f 7/7/1 34/31/1 8/8/1
f 11/10/1 39/36/1 12/11/1
f 16/13/1 45/45/1 17/14/1
f 19/16/1 38/35/1 20/17/1
f 22/19/1 35/32/1 23/20/1
f 25/22/1 47/47/1 26/23/1
f 28/25/1 32/29/1 29/26/1
f 31/28/1 48/48/1 32/29/1
f 33/30/1 31/28/1 28/25/1
f 30/27/1 29/26/1 35/32/1
f 8/8/1 30/27/1 22/19/1
f 34/31/1 28/25/1 30/27/1
f 27/24/1 26/23/1 37/34/1
f 29/26/1 27/24/1 1/1/1
f 32/29/1 25/22/1 27/24/1
f 24/21/1 23/20/1 38/35/1
f 5/5/1 24/21/1 19/16/1
f 36/33/1 22/19/1 24/21/1
f 39/36/1 19/16/1 21/18/1
f 38/35/1 16/13/1 18/15/1
f 40/37/1 11/10/1 13/12/1
f 9/9/1 8/8/1 36/33/1
f 10/39/1 9/9/1 4/4/1
f 41/41/1 7/7/1 9/9/1
f 43/42/1 33/30/1 34/31/1
f 44/43/1 43/42/1 7/7/1
f 6/6/1 5/5/1 39/36/1
f 15/44/1 6/6/1 11/10/1
f 42/40/1 4/4/1 6/6/1
f 3/3/1 2/2/1 45/45/1
f 23/20/1 3/3/1 16/13/1
f 35/32/1 1/1/1 3/3/1
f 46/46/1 49/49/1 47/47/1
f 48/48/1 46/46/1 25/22/1
