# Blender v2.82 (sub 7) OBJ File: ''
# www.blender.org
mtllib cloth_shorter_173verts.mtl
v 0.000000 -0.000000 0.916303
v -0.117235 -0.000000 1.033538
v -0.117235 -0.000000 0.916303
v 0.000000 -0.000000 0.447363
v -0.117235 -0.000000 0.564598
v -0.117235 -0.000000 0.447363
v 0.234470 -0.000000 0.447363
v 0.117235 -0.000000 0.564598
v 0.117235 -0.000000 0.447363
v -0.234470 -0.000000 0.447363
v -0.351705 -0.000000 0.564598
v -0.351705 -0.000000 0.447363
v -0.234470 -0.000000 0.916303
v -0.351705 -0.000000 1.033538
v -0.351705 -0.000000 0.916303
v -0.234470 -0.000000 0.681833
v -0.351705 -0.000000 0.799068
v -0.351705 -0.000000 0.681833
v 0.000000 -0.000000 0.681833
v -0.117235 -0.000000 0.799068
v -0.117235 -0.000000 0.681833
v 0.234470 -0.000000 0.916303
v 0.117235 -0.000000 1.033538
v 0.117235 -0.000000 0.916303
v 0.234470 -0.000000 0.681833
v 0.117235 -0.000000 0.799068
v 0.117235 -0.000000 0.681833
v 0.351705 -0.000000 0.681833
v 0.234470 -0.000000 0.799068
v 0.351705 -0.000000 0.564598
v 0.234470 -0.000000 0.564598
v 0.000000 -0.000000 0.799068
v 0.000000 -0.000000 0.564598
v 0.000000 -0.000000 1.033538
v -0.234470 -0.000000 0.799068
v -0.234470 -0.000000 0.564598
v -0.234470 -0.000000 0.330128
v -0.351705 -0.000000 0.330128
v 0.117235 -0.000000 0.330128
v 0.000000 -0.000000 0.330128
v 0.234470 -0.000000 0.330128
v 0.351705 -0.000000 0.447363
v 0.351705 -0.000000 0.330128
v -0.117235 -0.000000 0.330128
v -0.234470 -0.000000 1.033538
v 0.351705 -0.000000 0.916303
v 0.234470 -0.000000 1.033538
v 0.351705 -0.000000 0.799068
v 0.351705 -0.000000 1.033538
v -0.058617 -0.000000 0.916303
v -0.058617 -0.000000 0.974921
v -0.117235 -0.000000 0.974921
v -0.058617 -0.000000 0.447363
v -0.058617 -0.000000 0.505980
v -0.117235 -0.000000 0.505980
v 0.175852 -0.000000 0.447363
v 0.175852 -0.000000 0.505980
v 0.117235 -0.000000 0.505980
v -0.293088 -0.000000 0.447363
v -0.293088 -0.000000 0.505980
v -0.351705 -0.000000 0.505980
v -0.293088 -0.000000 0.916303
v -0.293088 -0.000000 0.974921
v -0.351705 -0.000000 0.974921
v -0.293088 -0.000000 0.681833
v -0.293088 -0.000000 0.740451
v -0.351705 -0.000000 0.740451
v -0.058617 -0.000000 0.681833
v -0.058617 -0.000000 0.740451
v -0.117235 -0.000000 0.740451
v 0.175852 -0.000000 0.916303
v 0.175852 -0.000000 0.974921
v 0.117235 -0.000000 0.974921
v 0.175852 -0.000000 0.681833
v 0.175852 -0.000000 0.740451
v 0.117235 -0.000000 0.740451
v 0.293088 -0.000000 0.681833
v 0.293088 -0.000000 0.740451
v 0.234470 -0.000000 0.740451
v 0.293088 -0.000000 0.564598
v 0.293088 -0.000000 0.623216
v 0.234470 -0.000000 0.623216
v 0.058617 -0.000000 0.681833
v 0.058617 -0.000000 0.740451
v 0.000000 -0.000000 0.740451
v 0.058617 -0.000000 0.564598
v 0.058617 -0.000000 0.623216
v 0.000000 -0.000000 0.623216
v 0.175852 -0.000000 0.564598
v 0.175852 -0.000000 0.623216
v 0.117235 -0.000000 0.623216
v 0.058617 -0.000000 0.916303
v 0.058617 -0.000000 0.974921
v 0.000000 -0.000000 0.974921
v 0.058617 -0.000000 0.799068
v 0.058617 -0.000000 0.857685
v 0.000000 -0.000000 0.857685
v 0.175852 -0.000000 0.799068
v 0.175852 -0.000000 0.857685
v 0.117235 -0.000000 0.857685
v -0.175852 -0.000000 0.681833
v -0.175852 -0.000000 0.740451
v -0.234470 -0.000000 0.740451
v -0.175852 -0.000000 0.564598
v -0.175852 -0.000000 0.623216
v -0.234470 -0.000000 0.623216
v -0.058617 -0.000000 0.564598
v -0.058617 -0.000000 0.623216
v -0.117235 -0.000000 0.623216
v -0.293088 -0.000000 0.564598
v -0.293088 -0.000000 0.623216
v -0.351705 -0.000000 0.623216
v -0.293088 -0.000000 0.799068
v -0.293088 -0.000000 0.857685
v -0.351705 -0.000000 0.857685
v -0.293088 -0.000000 0.330128
v -0.293088 -0.000000 0.388745
v -0.351705 -0.000000 0.388745
v 0.058617 -0.000000 0.447363
v 0.058617 -0.000000 0.505980
v 0.000000 -0.000000 0.505980
v 0.058617 -0.000000 0.330128
v 0.058617 -0.000000 0.388745
v 0.000000 -0.000000 0.388745
v 0.175852 -0.000000 0.330128
v 0.175852 -0.000000 0.388745
v 0.117235 -0.000000 0.388745
v 0.293088 -0.000000 0.447363
v 0.293088 -0.000000 0.505980
v 0.234470 -0.000000 0.505980
v 0.293088 -0.000000 0.330128
v 0.293088 -0.000000 0.388745
v 0.234470 -0.000000 0.388745
v -0.175852 -0.000000 0.447363
v -0.175852 -0.000000 0.505980
v -0.234470 -0.000000 0.505980
v -0.175852 -0.000000 0.330128
v -0.175852 -0.000000 0.388745
v -0.234470 -0.000000 0.388745
v -0.058617 -0.000000 0.330128
v -0.058617 -0.000000 0.388745
v -0.117235 -0.000000 0.388745
v -0.175852 -0.000000 0.916303
v -0.175852 -0.000000 0.974921
v -0.234470 -0.000000 0.974921
v -0.175852 -0.000000 0.799068
v -0.175852 -0.000000 0.857685
v -0.234470 -0.000000 0.857685
v -0.058617 -0.000000 0.799068
v -0.058617 -0.000000 0.857685
v -0.117235 -0.000000 0.857685
v 0.293088 -0.000000 0.916303
v 0.293088 -0.000000 0.974921
v 0.234470 -0.000000 0.974921
v 0.293088 -0.000000 0.799068
v 0.293088 -0.000000 0.857685
v 0.234470 -0.000000 0.857685
v -0.058617 -0.000000 1.033538
v -0.293088 -0.000000 1.033538
v 0.175852 -0.000000 1.033538
v 0.351705 -0.000000 0.740451
v 0.351705 -0.000000 0.623216
v 0.058617 -0.000000 1.033538
v 0.351705 -0.000000 0.505980
v 0.351705 -0.000000 0.388745
v -0.175852 -0.000000 1.033538
v 0.351705 -0.000000 0.974921
v 0.293088 -0.000000 1.033538
v 0.351705 -0.000000 0.857685
vt 0.500000 0.875000
vt 0.437500 0.937500
vt 0.437500 0.875000
vt 0.500000 0.375000
vt 0.437500 0.437500
vt 0.437500 0.375000
vt 0.750000 0.375000
vt 0.687500 0.437500
vt 0.687500 0.375000
vt 0.250000 0.375000
vt 0.187500 0.437500
vt 0.187500 0.375000
vt 0.250000 0.875000
vt 0.187500 0.937500
vt 0.187500 0.875000
vt 0.250000 0.625000
vt 0.187500 0.687500
vt 0.187500 0.625000
vt 0.500000 0.625000
vt 0.437500 0.687500
vt 0.437500 0.625000
vt 0.750000 0.875000
vt 0.687500 0.937500
vt 0.687500 0.875000
vt 0.750000 0.625000
vt 0.687500 0.687500
vt 0.687500 0.625000
vt 0.875000 0.625000
vt 0.812500 0.687500
vt 0.812500 0.625000
vt 0.875000 0.500000
vt 0.812500 0.562500
vt 0.812500 0.500000
vt 0.625000 0.625000
vt 0.562500 0.687500
vt 0.562500 0.625000
vt 0.625000 0.500000
vt 0.562500 0.562500
vt 0.562500 0.500000
vt 0.750000 0.500000
vt 0.687500 0.562500
vt 0.687500 0.500000
vt 0.625000 0.875000
vt 0.562500 0.937500
vt 0.562500 0.875000
vt 0.625000 0.750000
vt 0.562500 0.812500
vt 0.562500 0.750000
vt 0.750000 0.750000
vt 0.687500 0.812500
vt 0.687500 0.750000
vt 0.375000 0.625000
vt 0.312500 0.687500
vt 0.312500 0.625000
vt 0.375000 0.500000
vt 0.312500 0.562500
vt 0.312500 0.500000
vt 0.500000 0.500000
vt 0.437500 0.562500
vt 0.437500 0.500000
vt 0.250000 0.500000
vt 0.187500 0.562500
vt 0.187500 0.500000
vt 0.250000 0.750000
vt 0.187500 0.812500
vt 0.187500 0.750000
vt 0.250000 0.250000
vt 0.187500 0.312500
vt 0.187500 0.250000
vt 0.625000 0.375000
vt 0.562500 0.437500
vt 0.562500 0.375000
vt 0.625000 0.250000
vt 0.562500 0.312500
vt 0.562500 0.250000
vt 0.750000 0.250000
vt 0.687500 0.312500
vt 0.687500 0.250000
vt 0.875000 0.375000
vt 0.812500 0.437500
vt 0.812500 0.375000
vt 0.875000 0.250000
vt 0.812500 0.312500
vt 0.812500 0.250000
vt 0.375000 0.375000
vt 0.312500 0.437500
vt 0.312500 0.375000
vt 0.375000 0.250000
vt 0.312500 0.312500
vt 0.312500 0.250000
vt 0.500000 0.250000
vt 0.437500 0.312500
vt 0.437500 0.250000
vt 0.375000 0.875000
vt 0.312500 0.937500
vt 0.312500 0.875000
vt 0.375000 0.750000
vt 0.312500 0.812500
vt 0.312500 0.750000
vt 0.500000 0.750000
vt 0.437500 0.812500
vt 0.437500 0.750000
vt 0.875000 0.875000
vt 0.812500 0.937500
vt 0.812500 0.875000
vt 0.875000 0.750000
vt 0.812500 0.812500
vt 0.812500 0.750000
vt 0.500000 0.937500
vt 0.500000 0.437500
vt 0.750000 0.437500
vt 0.250000 0.437500
vt 0.250000 0.937500
vt 0.250000 0.687500
vt 0.500000 0.687500
vt 0.750000 0.937500
vt 0.750000 0.687500
vt 0.875000 0.687500
vt 0.875000 0.562500
vt 0.625000 0.687500
vt 0.625000 0.562500
vt 0.750000 0.562500
vt 0.625000 0.937500
vt 0.625000 0.812500
vt 0.750000 0.812500
vt 0.375000 0.687500
vt 0.375000 0.562500
vt 0.500000 0.562500
vt 0.250000 0.562500
vt 0.250000 0.812500
vt 0.250000 0.312500
vt 0.625000 0.437500
vt 0.625000 0.312500
vt 0.750000 0.312500
vt 0.875000 0.437500
vt 0.875000 0.312500
vt 0.375000 0.437500
vt 0.375000 0.312500
vt 0.500000 0.312500
vt 0.375000 0.937500
vt 0.375000 0.812500
vt 0.500000 0.812500
vt 0.875000 0.937500
vt 0.875000 0.812500
vt 0.812500 1.000000
vt 0.750000 1.000000
vt 0.875000 1.000000
vt 0.312500 1.000000
vt 0.250000 1.000000
vt 0.375000 1.000000
vt 0.125000 0.375000
vt 0.125000 0.875000
vt 0.125000 0.625000
vt 0.562500 1.000000
vt 0.500000 1.000000
vt 0.625000 1.000000
vt 0.687500 1.000000
vt 0.125000 0.750000
vt 0.187500 1.000000
vt 0.125000 1.000000
vt 0.125000 0.500000
vt 0.437500 1.000000
vt 0.125000 0.312500
vt 0.125000 0.250000
vt 0.125000 0.812500
vt 0.125000 0.562500
vt 0.125000 0.687500
vt 0.125000 0.937500
vt 0.125000 0.437500
vn 0.0000 -1.0000 -0.0000
usemtl None.001
s 1
f 1/1/1 51/2/1 50/3/1
f 4/4/1 54/5/1 53/6/1
f 7/7/1 57/8/1 56/9/1
f 10/10/1 60/11/1 59/12/1
f 13/13/1 63/14/1 62/15/1
f 16/16/1 66/17/1 65/18/1
f 19/19/1 69/20/1 68/21/1
f 22/22/1 72/23/1 71/24/1
f 25/25/1 75/26/1 74/27/1
f 28/28/1 78/29/1 77/30/1
f 30/31/1 81/32/1 80/33/1
f 27/34/1 84/35/1 83/36/1
f 8/37/1 87/38/1 86/39/1
f 31/40/1 90/41/1 89/42/1
f 24/43/1 93/44/1 92/45/1
f 26/46/1 96/47/1 95/48/1
f 29/49/1 99/50/1 98/51/1
f 21/52/1 102/53/1 101/54/1
f 5/55/1 105/56/1 104/57/1
f 33/58/1 108/59/1 107/60/1
f 36/61/1 111/62/1 110/63/1
f 35/64/1 114/65/1 113/66/1
f 37/67/1 117/68/1 116/69/1
f 9/70/1 120/71/1 119/72/1
f 39/73/1 123/74/1 122/75/1
f 41/76/1 126/77/1 125/78/1
f 42/79/1 129/80/1 128/81/1
f 43/82/1 132/83/1 131/84/1
f 6/85/1 135/86/1 134/87/1
f 44/88/1 138/89/1 137/90/1
f 40/91/1 141/92/1 140/93/1
f 3/94/1 144/95/1 143/96/1
f 20/97/1 147/98/1 146/99/1
f 32/100/1 150/101/1 149/102/1
f 46/103/1 153/104/1 152/105/1
f 48/106/1 156/107/1 155/108/1
f 1/1/1 94/109/1 51/2/1
f 4/4/1 121/110/1 54/5/1
f 7/7/1 130/111/1 57/8/1
f 10/10/1 136/112/1 60/11/1
f 13/13/1 145/113/1 63/14/1
f 16/16/1 103/114/1 66/17/1
f 19/19/1 85/115/1 69/20/1
f 22/22/1 154/116/1 72/23/1
f 25/25/1 79/117/1 75/26/1
f 28/28/1 161/118/1 78/29/1
f 30/31/1 162/119/1 81/32/1
f 27/34/1 76/120/1 84/35/1
f 8/37/1 91/121/1 87/38/1
f 31/40/1 82/122/1 90/41/1
f 24/43/1 73/123/1 93/44/1
f 26/46/1 100/124/1 96/47/1
f 29/49/1 157/125/1 99/50/1
f 21/52/1 70/126/1 102/53/1
f 5/55/1 109/127/1 105/56/1
f 33/58/1 88/128/1 108/59/1
f 36/61/1 106/129/1 111/62/1
f 35/64/1 148/130/1 114/65/1
f 37/67/1 139/131/1 117/68/1
f 9/70/1 58/132/1 120/71/1
f 39/73/1 127/133/1 123/74/1
f 41/76/1 133/134/1 126/77/1
f 42/79/1 164/135/1 129/80/1
f 43/82/1 165/136/1 132/83/1
f 6/85/1 55/137/1 135/86/1
f 44/88/1 142/138/1 138/89/1
f 40/91/1 124/139/1 141/92/1
f 3/94/1 52/140/1 144/95/1
f 20/97/1 151/141/1 147/98/1
f 32/100/1 97/142/1 150/101/1
f 46/103/1 167/143/1 153/104/1
f 48/106/1 169/144/1 156/107/1
f 156/107/1 152/105/1 22/22/1
f 156/107/1 169/144/1 152/105/1
f 169/144/1 46/103/1 152/105/1
f 153/104/1 168/145/1 47/146/1
f 153/104/1 167/143/1 168/145/1
f 167/143/1 49/147/1 168/145/1
f 150/101/1 50/3/1 3/94/1
f 150/101/1 97/142/1 50/3/1
f 97/142/1 1/1/1 50/3/1
f 147/98/1 143/96/1 13/13/1
f 147/98/1 151/141/1 143/96/1
f 151/141/1 3/94/1 143/96/1
f 144/95/1 166/148/1 45/149/1
f 144/95/1 52/140/1 166/148/1
f 52/140/1 2/150/1 166/148/1
f 141/92/1 53/6/1 6/85/1
f 141/92/1 124/139/1 53/6/1
f 124/139/1 4/4/1 53/6/1
f 138/89/1 134/87/1 10/10/1
f 138/89/1 142/138/1 134/87/1
f 142/138/1 6/85/1 134/87/1
f 135/86/1 104/57/1 36/61/1
f 135/86/1 55/137/1 104/57/1
f 55/137/1 5/55/1 104/57/1
f 132/83/1 128/81/1 7/7/1
f 132/83/1 165/136/1 128/81/1
f 165/136/1 42/79/1 128/81/1
f 129/80/1 80/33/1 31/40/1
f 129/80/1 164/135/1 80/33/1
f 164/135/1 30/31/1 80/33/1
f 126/77/1 56/9/1 9/70/1
f 126/77/1 133/134/1 56/9/1
f 133/134/1 7/7/1 56/9/1
f 123/74/1 119/72/1 4/4/1
f 123/74/1 127/133/1 119/72/1
f 127/133/1 9/70/1 119/72/1
f 120/71/1 86/39/1 33/58/1
f 120/71/1 58/132/1 86/39/1
f 58/132/1 8/37/1 86/39/1
f 117/68/1 59/12/1 12/151/1
f 117/68/1 139/131/1 59/12/1
f 139/131/1 10/10/1 59/12/1
f 114/65/1 62/15/1 15/152/1
f 114/65/1 148/130/1 62/15/1
f 148/130/1 13/13/1 62/15/1
f 111/62/1 65/18/1 18/153/1
f 111/62/1 106/129/1 65/18/1
f 106/129/1 16/16/1 65/18/1
f 108/59/1 68/21/1 21/52/1
f 108/59/1 88/128/1 68/21/1
f 88/128/1 19/19/1 68/21/1
f 105/56/1 101/54/1 16/16/1
f 105/56/1 109/127/1 101/54/1
f 109/127/1 21/52/1 101/54/1
f 102/53/1 146/99/1 35/64/1
f 102/53/1 70/126/1 146/99/1
f 70/126/1 20/97/1 146/99/1
f 99/50/1 71/24/1 24/43/1
f 99/50/1 157/125/1 71/24/1
f 157/125/1 22/22/1 71/24/1
f 96/47/1 92/45/1 1/1/1
f 96/47/1 100/124/1 92/45/1
f 100/124/1 24/43/1 92/45/1
f 93/44/1 163/154/1 34/155/1
f 93/44/1 73/123/1 163/154/1
f 73/123/1 23/156/1 163/154/1
f 90/41/1 74/27/1 27/34/1
f 90/41/1 82/122/1 74/27/1
f 82/122/1 25/25/1 74/27/1
f 87/38/1 83/36/1 19/19/1
f 87/38/1 91/121/1 83/36/1
f 91/121/1 27/34/1 83/36/1
f 84/35/1 95/48/1 32/100/1
f 84/35/1 76/120/1 95/48/1
f 76/120/1 26/46/1 95/48/1
f 81/32/1 77/30/1 25/25/1
f 81/32/1 162/119/1 77/30/1
f 162/119/1 28/28/1 77/30/1
f 78/29/1 155/108/1 29/49/1
f 78/29/1 161/118/1 155/108/1
f 161/118/1 48/106/1 155/108/1
f 75/26/1 98/51/1 26/46/1
f 75/26/1 79/117/1 98/51/1
f 79/117/1 29/49/1 98/51/1
f 72/23/1 160/157/1 23/156/1
f 72/23/1 154/116/1 160/157/1
f 154/116/1 47/146/1 160/157/1
f 69/20/1 149/102/1 20/97/1
f 69/20/1 85/115/1 149/102/1
f 85/115/1 32/100/1 149/102/1
f 66/17/1 113/66/1 17/158/1
f 66/17/1 103/114/1 113/66/1
f 103/114/1 35/64/1 113/66/1
f 63/14/1 159/159/1 14/160/1
f 63/14/1 145/113/1 159/159/1
f 145/113/1 45/149/1 159/159/1
f 60/11/1 110/63/1 11/161/1
f 60/11/1 136/112/1 110/63/1
f 136/112/1 36/61/1 110/63/1
f 57/8/1 89/42/1 8/37/1
f 57/8/1 130/111/1 89/42/1
f 130/111/1 31/40/1 89/42/1
f 54/5/1 107/60/1 5/55/1
f 54/5/1 121/110/1 107/60/1
f 121/110/1 33/58/1 107/60/1
f 51/2/1 158/162/1 2/150/1
f 51/2/1 94/109/1 158/162/1
f 94/109/1 34/155/1 158/162/1
f 155/108/1 157/125/1 29/49/1
f 155/108/1 156/107/1 157/125/1
f 156/107/1 22/22/1 157/125/1
f 152/105/1 154/116/1 22/22/1
f 152/105/1 153/104/1 154/116/1
f 153/104/1 47/146/1 154/116/1
f 149/102/1 151/141/1 20/97/1
f 149/102/1 150/101/1 151/141/1
f 150/101/1 3/94/1 151/141/1
f 146/99/1 148/130/1 35/64/1
f 146/99/1 147/98/1 148/130/1
f 147/98/1 13/13/1 148/130/1
f 143/96/1 145/113/1 13/13/1
f 143/96/1 144/95/1 145/113/1
f 144/95/1 45/149/1 145/113/1
f 140/93/1 142/138/1 44/88/1
f 140/93/1 141/92/1 142/138/1
f 141/92/1 6/85/1 142/138/1
f 137/90/1 139/131/1 37/67/1
f 137/90/1 138/89/1 139/131/1
f 138/89/1 10/10/1 139/131/1
f 134/87/1 136/112/1 10/10/1
f 134/87/1 135/86/1 136/112/1
f 135/86/1 36/61/1 136/112/1
f 131/84/1 133/134/1 41/76/1
f 131/84/1 132/83/1 133/134/1
f 132/83/1 7/7/1 133/134/1
f 128/81/1 130/111/1 7/7/1
f 128/81/1 129/80/1 130/111/1
f 129/80/1 31/40/1 130/111/1
f 125/78/1 127/133/1 39/73/1
f 125/78/1 126/77/1 127/133/1
f 126/77/1 9/70/1 127/133/1
f 122/75/1 124/139/1 40/91/1
f 122/75/1 123/74/1 124/139/1
f 123/74/1 4/4/1 124/139/1
f 119/72/1 121/110/1 4/4/1
f 119/72/1 120/71/1 121/110/1
f 120/71/1 33/58/1 121/110/1
f 116/69/1 118/163/1 38/164/1
f 116/69/1 117/68/1 118/163/1
f 117/68/1 12/151/1 118/163/1
f 113/66/1 115/165/1 17/158/1
f 113/66/1 114/65/1 115/165/1
f 114/65/1 15/152/1 115/165/1
f 110/63/1 112/166/1 11/161/1
f 110/63/1 111/62/1 112/166/1
f 111/62/1 18/153/1 112/166/1
f 107/60/1 109/127/1 5/55/1
f 107/60/1 108/59/1 109/127/1
f 108/59/1 21/52/1 109/127/1
f 104/57/1 106/129/1 36/61/1
f 104/57/1 105/56/1 106/129/1
f 105/56/1 16/16/1 106/129/1
f 101/54/1 103/114/1 16/16/1
f 101/54/1 102/53/1 103/114/1
f 102/53/1 35/64/1 103/114/1
f 98/51/1 100/124/1 26/46/1
f 98/51/1 99/50/1 100/124/1
f 99/50/1 24/43/1 100/124/1
f 95/48/1 97/142/1 32/100/1
f 95/48/1 96/47/1 97/142/1
f 96/47/1 1/1/1 97/142/1
f 92/45/1 94/109/1 1/1/1
f 92/45/1 93/44/1 94/109/1
f 93/44/1 34/155/1 94/109/1
f 89/42/1 91/121/1 8/37/1
f 89/42/1 90/41/1 91/121/1
f 90/41/1 27/34/1 91/121/1
f 86/39/1 88/128/1 33/58/1
f 86/39/1 87/38/1 88/128/1
f 87/38/1 19/19/1 88/128/1
f 83/36/1 85/115/1 19/19/1
f 83/36/1 84/35/1 85/115/1
f 84/35/1 32/100/1 85/115/1
f 80/33/1 82/122/1 31/40/1
f 80/33/1 81/32/1 82/122/1
f 81/32/1 25/25/1 82/122/1
f 77/30/1 79/117/1 25/25/1
f 77/30/1 78/29/1 79/117/1
f 78/29/1 29/49/1 79/117/1
f 74/27/1 76/120/1 27/34/1
f 74/27/1 75/26/1 76/120/1
f 75/26/1 26/46/1 76/120/1
f 71/24/1 73/123/1 24/43/1
f 71/24/1 72/23/1 73/123/1
f 72/23/1 23/156/1 73/123/1
f 68/21/1 70/126/1 21/52/1
f 68/21/1 69/20/1 70/126/1
f 69/20/1 20/97/1 70/126/1
f 65/18/1 67/167/1 18/153/1
f 65/18/1 66/17/1 67/167/1
f 66/17/1 17/158/1 67/167/1
f 62/15/1 64/168/1 15/152/1
f 62/15/1 63/14/1 64/168/1
f 63/14/1 14/160/1 64/168/1
f 59/12/1 61/169/1 12/151/1
f 59/12/1 60/11/1 61/169/1
f 60/11/1 11/161/1 61/169/1
f 56/9/1 58/132/1 9/70/1
f 56/9/1 57/8/1 58/132/1
f 57/8/1 8/37/1 58/132/1
f 53/6/1 55/137/1 6/85/1
f 53/6/1 54/5/1 55/137/1
f 54/5/1 5/55/1 55/137/1
f 50/3/1 52/140/1 3/94/1
f 50/3/1 51/2/1 52/140/1
f 51/2/1 2/150/1 52/140/1
